<svg id="图层_1" data-name="图层 1" xmlns="http://www.w3.org/2000/svg" viewBox="0 0 567.47 655"><defs><style>.cls-1{fill:#004da0;fill-rule:evenodd;}</style></defs><path class="cls-1" d="M509.05,191.32c6.39,5,9.82,8.48,12.45,10.64,22.12-10.64,67.09-29.12,106.06-21.73,56.27,10.59,6.42,133-109.71,227.94,0,0-48.69,38.81-87.83,66.52v13.25s20.17,17,39.14,30.34C535.27,470,664.47,361.87,689.09,237.69,700.88,178.14,657.79,122.43,509.05,191.32Z" transform="translate(-123.46 -67)"/><path class="cls-1" d="M468.93,195.2s.23-113.66.13-117.35c0-23.84-9.31-1-9.31-1l-28.95,66s-138.28-100-209.51-34-12.36,216.49,23.3,275.26S303,475.42,350.19,523.32V432.44s-60.75-51.5-102.8-183.75c-13.23-41.36-20.39-114.71,19.1-132C307.86,98.55,405,137.81,468.93,195.2Z" transform="translate(-123.46 -67)"/><path class="cls-1" d="M468.16,204.66c-21.15,7.82-121,52.19-207.68,121.81-52.93,42.36-97.33,92.2-122.94,147.46-45.85,98.95,31.19,132.72,75.58,137.8,37.62,4.33,86.3-4.69,137.07-33.74v-59.4s-81.8,44-139.81,35.63c-83.55-12-49.78-105.78,56.61-198.48C377.87,259,468.16,221.6,468.16,221.6Z" transform="translate(-123.46 -67)"/><path class="cls-1" d="M546.93,234.7s-35.08-37.91-58-53.49V205c4,3.19,80.53,57.75,126.47,173.69,26.7,67.14,57.74,175.57-27.13,189.51-27.56,4.53-91.44,2-208.35-110.6,0,0,0,233.94,0,236.54,0,53,14.51,14.83,15.64,11.54.9-2.63,36.78-116.93,36.78-116.93s180.88,107,235.23-28.28C708.61,458.41,603.77,289.5,546.93,234.7Z" transform="translate(-123.46 -67)"/><path class="cls-1" d="M467.46,352.06c-9.71,21.84-33.86,38-53.89,36.25s-28.65-20.9-19-42.71c9.71-21.62,33.85-37.87,54-36.14S477.2,330.26,467.46,352.06Z" transform="translate(-123.46 -67)"/></svg>